<svg viewBox="0 0 2500 2500" xmlns="http://www.w3.org/2000/svg" width="2500" height="2500"><linearGradient id="a" gradientTransform="matrix(2500 0 0 -2500 -724710 4475710)" gradientUnits="userSpaceOnUse" x1="290.384" x2="290.384" y1="1789.284" y2="1790.284"><stop offset="0" stop-color="#f9b932"/><stop offset="1" stop-color="#f9cb37"/></linearGradient><path d="M0 0h2500v2500H0z" fill="url(#a)"/><path d="M2278.8 1314l-458 791c-19.5 33.7-55.7 56.2-97.7 56.2H807.6c-42 0-78.1-22.5-97.7-56.6L251 1314c-20.2-34.9-20.2-77.9 0-112.8l458-791c19.5-33.2 56.2-56.2 97.7-56.2h917c42 0 78.1 22.9 97.7 56.6l457.5 790.5c20.2 34.9 20.2 78-.1 112.9zM1125 1761.2h280.8c62.3 0 112.8-50.5 112.8-112.8s-50.5-112.8-112.8-112.8H1125c-62.3 0-112.8 50.5-112.8 112.8s50.5 112.8 112.8 112.8zm392.1-1004.4h-503.4c-62.4 0-113 50.6-113 113s50.6 113 113 113h503.4c62.4 0 113-50.6 113-113s-50.6-113-113-113zm204.6 389.2H808.6c-62.4 0-113 50.6-113 113s50.6 113 113 113h913.1c62.4 0 113-50.6 113-113s-50.6-113-113-113z" fill="#fff"/></svg>